<?xml version="1.0" encoding="UTF-8" standalone="no"?>
<svg
   xmlns:dc="http://purl.org/dc/elements/1.1/"
   xmlns:cc="http://creativecommons.org/ns#"
   xmlns:rdf="http://www.w3.org/1999/02/22-rdf-syntax-ns#"
   xmlns:svg="http://www.w3.org/2000/svg"
   xmlns="http://www.w3.org/2000/svg"
   xmlns:sodipodi="http://sodipodi.sourceforge.net/DTD/sodipodi-0.dtd"
   xmlns:inkscape="http://www.inkscape.org/namespaces/inkscape"
   width="1366"
   height="583"
   viewBox="0 0 361.42084 154.25209"
   version="1.1"
   id="svg8"
   inkscape:version="1.0.1 (3bc2e813f5, 2020-09-07)"
   sodipodi:docname="banner.svg">
  <defs
     id="defs2">
    <style
       id="style2187">.cls-1{fill:url(#radial-gradient);}.cls-2{fill:#fff;}</style>
    <radialGradient
       cx="-578.95"
       cy="-837.6"
       gradientTransform="matrix(0.75,0,0,0.75,499.5,629.5)"
       gradientUnits="userSpaceOnUse"
       id="radial-gradient"
       r="197.06">
      <stop
         offset="0"
         stop-color="#f9ed32"
         id="stop2189" />
      <stop
         offset="0.36"
         stop-color="#ee2a7b"
         id="stop2191" />
      <stop
         offset="0.44"
         stop-color="#d22a8a"
         id="stop2193" />
      <stop
         offset="0.6"
         stop-color="#8b2ab2"
         id="stop2195" />
      <stop
         offset="0.83"
         stop-color="#1b2af0"
         id="stop2197" />
      <stop
         offset="0.88"
         stop-color="#002aff"
         id="stop2199" />
    </radialGradient>
  </defs>
  <sodipodi:namedview
     id="base"
     pagecolor="#ffffff"
     bordercolor="#666666"
     borderopacity="1.0"
     inkscape:pageopacity="0.0"
     inkscape:pageshadow="2"
     inkscape:zoom="0.58434519"
     inkscape:cx="596.49789"
     inkscape:cy="263.8064"
     inkscape:document-units="px"
     inkscape:current-layer="layer1"
     inkscape:document-rotation="0"
     showgrid="false"
     units="px"
     inkscape:showpageshadow="false"
     inkscape:window-width="1366"
     inkscape:window-height="715"
     inkscape:window-x="-8"
     inkscape:window-y="22"
     inkscape:window-maximized="1" />
  <metadata
     id="metadata5">
    <rdf:RDF>
      <cc:Work
         rdf:about="">
        <dc:format>image/svg+xml</dc:format>
        <dc:type
           rdf:resource="http://purl.org/dc/dcmitype/StillImage" />
        <dc:title></dc:title>
      </cc:Work>
    </rdf:RDF>
  </metadata>
  <g
     inkscape:label="Layer 1"
     inkscape:groupmode="layer"
     id="layer1">
    <rect
       style="opacity:0.55;fill:#ffffff;fill-opacity:1;stroke-width:0.967064;stroke-miterlimit:4;stroke-dasharray:none"
       id="rect1470"
       width="361.42084"
       height="154.25209"
       x="1.9088282e-06"
       y="-1.0997445e-06" />
    <g
       id="g1460"
       transform="matrix(0.12636982,0,0,0.12636982,197.3665,25.69607)">
      <path
         d="m 1172,537.57 a 181.92,181.92 0 0 1 -6.85,49.6 180.06,180.06 0 0 1 -19.27,44.28 c 0,50.1 -33.82,93.4 -82.91,114 a 167.3,167.3 0 0 1 -64.73,12.8 H 245.17 c -40.25,0 -77.55,-10.86 -108.14,-29.36 A 185.76,185.76 0 0 1 112.2,711 C 78.2,681.78 57.12,641.4 57.12,596.8 A 180.5,180.5 0 0 1 28,498.08 C 28,424.72 71.39,361.64 133.55,333.79 a 174.52,174.52 0 0 1 25.51,-9.12 q 4.63,-1.26 9.36,-2.26 a 175.39,175.39 0 0 1 25.51,-3.5 q 4.65,-0.29 9.35,-0.33 H 205 c 3.46,0 6.89,0.12 10.3,0.32 l 1.12,-1.9 q 2.06,-3.44 4.22,-6.81 3.9,-6.14 8.18,-12.1 4.48,-6.29 9.35,-12.38 l 0.83,-1 q 2.76,-3.44 5.64,-6.8 9,-10.49 19,-20.35 c 72.11,-70.68 185.08,-116.18 312.08,-116.18 98.82,0 189.15,27.55 258.34,73.07 A 174.18,174.18 0 0 1 920,191.86 c 97.74,0 177,80.37 177,179.51 a 184.9,184.9 0 0 1 -1,18.78 180,180 0 0 1 76,147.42 z"
         transform="translate(-28,-141.34)"
         fill="#6c63ff"
         opacity="0.1"
         id="path835" />
      <path
         d="m 263.66,257.52 v 20.35 h -19 q 8.93,-10.48 19,-20.35 z"
         transform="translate(-28,-141.34)"
         fill="#6c63ff"
         opacity="0.2"
         id="path837" />
      <rect
         x="245.02"
         y="111.02"
         width="25.51"
         height="25.51"
         fill="#6c63ff"
         opacity="0.2"
         id="rect839" />
      <rect
         x="279.88"
         y="111.02"
         width="25.51"
         height="25.51"
         fill="#6c63ff"
         opacity="0.2"
         id="rect841" />
      <rect
         x="314.75"
         y="111.02"
         width="25.51"
         height="25.51"
         fill="#6c63ff"
         opacity="0.2"
         id="rect843" />
      <rect
         x="349.60999"
         y="111.02"
         width="25.51"
         height="25.51"
         fill="#6c63ff"
         opacity="0.2"
         id="rect845" />
      <rect
         x="384.48001"
         y="111.02"
         width="25.51"
         height="25.51"
         fill="#6c63ff"
         opacity="0.2"
         id="rect847" />
      <rect
         x="419.35001"
         y="111.02"
         width="25.51"
         height="25.51"
         fill="#6c63ff"
         id="rect849" />
      <rect
         x="454.20999"
         y="111.02"
         width="25.51"
         height="25.51"
         fill="#6c63ff"
         opacity="0.2"
         id="rect851" />
      <rect
         x="489.07999"
         y="111.02"
         width="25.51"
         height="25.51"
         fill="#6c63ff"
         opacity="0.2"
         id="rect853" />
      <rect
         x="523.94"
         y="111.02"
         width="25.51"
         height="25.51"
         fill="#6c63ff"
         opacity="0.2"
         id="rect855" />
      <rect
         x="558.81"
         y="111.02"
         width="25.51"
         height="25.51"
         fill="#6c63ff"
         id="rect857" />
      <rect
         x="593.67999"
         y="111.02"
         width="25.51"
         height="25.51"
         fill="#6c63ff"
         opacity="0.2"
         id="rect859" />
      <rect
         x="628.53998"
         y="111.02"
         width="25.51"
         height="25.51"
         fill="#6c63ff"
         opacity="0.2"
         id="rect861" />
      <rect
         x="663.40997"
         y="111.02"
         width="25.51"
         height="25.51"
         fill="#6c63ff"
         opacity="0.2"
         id="rect863" />
      <rect
         x="698.28003"
         y="111.02"
         width="25.51"
         height="25.51"
         fill="#6c63ff"
         opacity="0.2"
         id="rect865" />
      <rect
         x="733.14001"
         y="111.02"
         width="25.51"
         height="25.51"
         fill="#6c63ff"
         opacity="0.2"
         id="rect867" />
      <rect
         x="768.01001"
         y="111.02"
         width="25.51"
         height="25.51"
         fill="#6c63ff"
         opacity="0.2"
         id="rect869" />
      <rect
         x="802.87"
         y="111.02"
         width="25.51"
         height="25.51"
         fill="#6c63ff"
         id="rect871" />
      <rect
         x="837.73999"
         y="111.02"
         width="25.51"
         height="25.51"
         fill="#6c63ff"
         id="rect873" />
      <rect
         x="872.60999"
         y="111.02"
         width="25.51"
         height="25.51"
         fill="#6c63ff"
         opacity="0.2"
         id="rect875" />
      <rect
         x="907.46997"
         y="111.02"
         width="25.51"
         height="25.51"
         fill="#6c63ff"
         opacity="0.2"
         id="rect877" />
      <rect
         x="942.34003"
         y="111.02"
         width="25.51"
         height="25.51"
         fill="#6c63ff"
         id="rect879" />
      <rect
         x="977.20001"
         y="111.02"
         width="25.51"
         height="25.51"
         fill="#6c63ff"
         id="rect881" />
      <path
         d="m 228.8,298.08 v 12.1 h -8.18 q 3.9,-6.18 8.18,-12.1 z"
         transform="translate(-28,-141.34)"
         fill="#6c63ff"
         id="path883" />
      <rect
         x="210.14999"
         y="143.33"
         width="25.51"
         height="25.51"
         fill="#6c63ff"
         opacity="0.2"
         id="rect885" />
      <rect
         x="245.02"
         y="143.33"
         width="25.51"
         height="25.51"
         fill="#6c63ff"
         id="rect887" />
      <rect
         x="279.88"
         y="143.33"
         width="25.51"
         height="25.51"
         fill="#6c63ff"
         opacity="0.2"
         id="rect889" />
      <rect
         x="314.75"
         y="143.33"
         width="25.51"
         height="25.51"
         fill="#6c63ff"
         opacity="0.7"
         id="rect891" />
      <rect
         x="349.60999"
         y="143.33"
         width="25.51"
         height="25.51"
         fill="#6c63ff"
         opacity="0.2"
         id="rect893" />
      <rect
         x="384.48001"
         y="143.33"
         width="25.51"
         height="25.51"
         fill="#6c63ff"
         opacity="0.4"
         id="rect895" />
      <rect
         x="419.35001"
         y="143.33"
         width="25.51"
         height="25.51"
         fill="#6c63ff"
         id="rect897" />
      <rect
         x="454.20999"
         y="143.33"
         width="25.51"
         height="25.51"
         fill="#6c63ff"
         opacity="0.4"
         id="rect899" />
      <rect
         x="489.07999"
         y="143.33"
         width="25.51"
         height="25.51"
         fill="#6c63ff"
         opacity="0.2"
         id="rect901" />
      <rect
         x="523.94"
         y="143.33"
         width="25.51"
         height="25.51"
         fill="#6c63ff"
         opacity="0.4"
         id="rect903" />
      <rect
         x="558.81"
         y="143.33"
         width="25.51"
         height="25.51"
         fill="#6c63ff"
         id="rect905" />
      <rect
         x="593.67999"
         y="143.33"
         width="25.51"
         height="25.51"
         fill="#6c63ff"
         opacity="0.4"
         id="rect907" />
      <rect
         x="628.53998"
         y="143.33"
         width="25.51"
         height="25.51"
         fill="#6c63ff"
         opacity="0.4"
         id="rect909" />
      <rect
         x="663.40997"
         y="143.33"
         width="25.51"
         height="25.51"
         fill="#6c63ff"
         opacity="0.2"
         id="rect911" />
      <rect
         x="698.28003"
         y="143.33"
         width="25.51"
         height="25.51"
         fill="#6c63ff"
         opacity="0.4"
         id="rect913" />
      <rect
         x="733.14001"
         y="143.33"
         width="25.51"
         height="25.51"
         fill="#6c63ff"
         opacity="0.4"
         id="rect915" />
      <rect
         x="768.01001"
         y="143.33"
         width="25.51"
         height="25.51"
         fill="#6c63ff"
         opacity="0.2"
         id="rect917" />
      <rect
         x="802.87"
         y="143.33"
         width="25.51"
         height="25.51"
         fill="#6c63ff"
         opacity="0.2"
         id="rect919" />
      <rect
         x="837.73999"
         y="143.33"
         width="25.51"
         height="25.51"
         fill="#6c63ff"
         opacity="0.4"
         id="rect921" />
      <rect
         x="872.60999"
         y="143.33"
         width="25.51"
         height="25.51"
         fill="#6c63ff"
         opacity="0.2"
         id="rect923" />
      <rect
         x="907.46997"
         y="143.33"
         width="25.51"
         height="25.51"
         fill="#6c63ff"
         id="rect925" />
      <rect
         x="942.34003"
         y="143.33"
         width="25.51"
         height="25.51"
         fill="#6c63ff"
         id="rect927" />
      <rect
         x="977.20001"
         y="143.33"
         width="25.51"
         height="25.51"
         fill="#6c63ff"
         id="rect929" />
      <path
         d="m 159.06,324.67 v 17.83 h -25.51 v -8.71 a 174.52,174.52 0 0 1 25.51,-9.12 z"
         transform="translate(-28,-141.34)"
         fill="#6c63ff"
         opacity="0.2"
         id="path931" />
      <polygon
         points="165.93,177.57 165.93,201.16 140.42,201.16 140.42,181.07 "
         fill="#6c63ff"
         opacity="0.2"
         id="polygon933" />
      <rect
         x="175.28"
         y="175.64999"
         width="25.51"
         height="25.51"
         fill="#6c63ff"
         id="rect935" />
      <rect
         x="210.14999"
         y="175.64999"
         width="25.51"
         height="25.51"
         fill="#6c63ff"
         opacity="0.7"
         id="rect937" />
      <rect
         x="245.02"
         y="175.64999"
         width="25.51"
         height="25.51"
         fill="#6c63ff"
         id="rect939" />
      <rect
         x="279.88"
         y="175.64999"
         width="25.51"
         height="25.51"
         fill="#6c63ff"
         opacity="0.7"
         id="rect941" />
      <rect
         x="314.75"
         y="175.64999"
         width="25.51"
         height="25.51"
         fill="#6c63ff"
         opacity="0.7"
         id="rect943" />
      <rect
         x="349.60999"
         y="175.64999"
         width="25.51"
         height="25.51"
         fill="#6c63ff"
         opacity="0.2"
         id="rect945" />
      <rect
         x="384.48001"
         y="175.64999"
         width="25.51"
         height="25.51"
         fill="#6c63ff"
         opacity="0.4"
         id="rect947" />
      <rect
         x="419.35001"
         y="175.64999"
         width="25.51"
         height="25.51"
         fill="#6c63ff"
         opacity="0.4"
         id="rect949" />
      <rect
         x="454.20999"
         y="175.64999"
         width="25.51"
         height="25.51"
         fill="#6c63ff"
         id="rect951" />
      <rect
         x="489.07999"
         y="175.64999"
         width="25.51"
         height="25.51"
         fill="#6c63ff"
         opacity="0.2"
         id="rect953" />
      <rect
         x="523.94"
         y="175.64999"
         width="25.51"
         height="25.51"
         fill="#6c63ff"
         opacity="0.4"
         id="rect955" />
      <rect
         x="558.81"
         y="175.64999"
         width="25.51"
         height="25.51"
         fill="#6c63ff"
         id="rect957" />
      <rect
         x="593.67999"
         y="175.64999"
         width="25.51"
         height="25.51"
         fill="#6c63ff"
         opacity="0.2"
         id="rect959" />
      <rect
         x="628.53998"
         y="175.64999"
         width="25.51"
         height="25.51"
         fill="#6c63ff"
         opacity="0.4"
         id="rect961" />
      <rect
         x="663.40997"
         y="175.64999"
         width="25.51"
         height="25.51"
         fill="#6c63ff"
         opacity="0.2"
         id="rect963" />
      <rect
         x="698.28003"
         y="175.64999"
         width="25.51"
         height="25.51"
         fill="#6c63ff"
         id="rect965" />
      <rect
         x="733.14001"
         y="175.64999"
         width="25.51"
         height="25.51"
         fill="#6c63ff"
         opacity="0.2"
         id="rect967" />
      <rect
         x="768.01001"
         y="175.64999"
         width="25.51"
         height="25.51"
         fill="#6c63ff"
         opacity="0.7"
         id="rect969" />
      <rect
         x="802.87"
         y="175.64999"
         width="25.51"
         height="25.51"
         fill="#6c63ff"
         opacity="0.7"
         id="rect971" />
      <rect
         x="837.73999"
         y="175.64999"
         width="25.51"
         height="25.51"
         fill="#6c63ff"
         opacity="0.4"
         id="rect973" />
      <rect
         x="872.60999"
         y="175.64999"
         width="25.51"
         height="25.51"
         fill="#6c63ff"
         opacity="0.2"
         id="rect975" />
      <rect
         x="907.46997"
         y="175.64999"
         width="25.51"
         height="25.51"
         fill="#6c63ff"
         id="rect977" />
      <rect
         x="942.34003"
         y="175.64999"
         width="25.51"
         height="25.51"
         fill="#6c63ff"
         id="rect979" />
      <rect
         x="977.20001"
         y="175.64999"
         width="25.51"
         height="25.51"
         fill="#6c63ff"
         id="rect981" />
      <rect
         x="105.55"
         y="207.96001"
         width="25.51"
         height="25.51"
         fill="#6c63ff"
         opacity="0.2"
         id="rect983" />
      <rect
         x="140.42"
         y="207.96001"
         width="25.51"
         height="25.51"
         fill="#6c63ff"
         opacity="0.2"
         id="rect985" />
      <rect
         x="175.28"
         y="207.96001"
         width="25.51"
         height="25.51"
         fill="#6c63ff"
         opacity="0.2"
         id="rect987" />
      <rect
         x="210.14999"
         y="207.96001"
         width="25.51"
         height="25.51"
         fill="#6c63ff"
         opacity="0.2"
         id="rect989" />
      <rect
         x="245.02"
         y="207.96001"
         width="25.51"
         height="25.51"
         fill="#6c63ff"
         id="rect991" />
      <rect
         x="279.88"
         y="207.96001"
         width="25.51"
         height="25.51"
         fill="#6c63ff"
         opacity="0.7"
         id="rect993" />
      <rect
         x="314.75"
         y="207.96001"
         width="25.51"
         height="25.51"
         fill="#6c63ff"
         opacity="0.7"
         id="rect995" />
      <rect
         x="349.60999"
         y="207.96001"
         width="25.51"
         height="25.51"
         fill="#6c63ff"
         opacity="0.2"
         id="rect997" />
      <rect
         x="384.48001"
         y="207.96001"
         width="25.51"
         height="25.51"
         fill="#6c63ff"
         opacity="0.2"
         id="rect999" />
      <rect
         x="419.35001"
         y="207.96001"
         width="25.51"
         height="25.51"
         fill="#6c63ff"
         opacity="0.4"
         id="rect1001" />
      <rect
         x="454.20999"
         y="207.96001"
         width="25.51"
         height="25.51"
         fill="#6c63ff"
         opacity="0.4"
         id="rect1003" />
      <rect
         x="489.07999"
         y="207.96001"
         width="25.51"
         height="25.51"
         fill="#6c63ff"
         id="rect1005" />
      <rect
         x="523.94"
         y="207.96001"
         width="25.51"
         height="25.51"
         fill="#6c63ff"
         opacity="0.2"
         id="rect1007" />
      <rect
         x="558.81"
         y="207.96001"
         width="25.51"
         height="25.51"
         fill="#6c63ff"
         opacity="0.4"
         id="rect1009" />
      <rect
         x="593.67999"
         y="207.96001"
         width="25.51"
         height="25.51"
         fill="#6c63ff"
         opacity="0.4"
         id="rect1011" />
      <rect
         x="628.53998"
         y="207.96001"
         width="25.51"
         height="25.51"
         fill="#6c63ff"
         opacity="0.4"
         id="rect1013" />
      <rect
         x="663.40997"
         y="207.96001"
         width="25.51"
         height="25.51"
         fill="#6c63ff"
         opacity="0.4"
         id="rect1015" />
      <rect
         x="698.28003"
         y="207.96001"
         width="25.51"
         height="25.51"
         fill="#6c63ff"
         opacity="0.2"
         id="rect1017" />
      <rect
         x="733.14001"
         y="207.96001"
         width="25.51"
         height="25.51"
         fill="#6c63ff"
         opacity="0.2"
         id="rect1019" />
      <rect
         x="768.01001"
         y="207.96001"
         width="25.51"
         height="25.51"
         fill="#6c63ff"
         opacity="0.2"
         id="rect1021" />
      <rect
         x="802.87"
         y="207.96001"
         width="25.51"
         height="25.51"
         fill="#6c63ff"
         opacity="0.2"
         id="rect1023" />
      <rect
         x="837.73999"
         y="207.96001"
         width="25.51"
         height="25.51"
         fill="#6c63ff"
         opacity="0.7"
         id="rect1025" />
      <rect
         x="872.60999"
         y="207.96001"
         width="25.51"
         height="25.51"
         fill="#6c63ff"
         opacity="0.7"
         id="rect1027" />
      <rect
         x="907.46997"
         y="207.96001"
         width="25.51"
         height="25.51"
         fill="#6c63ff"
         opacity="0.4"
         id="rect1029" />
      <rect
         x="942.34003"
         y="207.96001"
         width="25.51"
         height="25.51"
         fill="#6c63ff"
         opacity="0.2"
         id="rect1031" />
      <rect
         x="977.20001"
         y="207.96001"
         width="25.51"
         height="25.51"
         fill="#6c63ff"
         id="rect1033" />
      <rect
         x="105.55"
         y="240.28"
         width="25.51"
         height="25.51"
         fill="#6c63ff"
         opacity="0.2"
         id="rect1035" />
      <rect
         x="140.42"
         y="240.28"
         width="25.51"
         height="25.51"
         fill="#6c63ff"
         opacity="0.2"
         id="rect1037" />
      <rect
         x="175.28"
         y="240.28"
         width="25.51"
         height="25.51"
         fill="#6c63ff"
         opacity="0.4"
         id="rect1039" />
      <rect
         x="210.14999"
         y="240.28"
         width="25.51"
         height="25.51"
         fill="#6c63ff"
         opacity="0.2"
         id="rect1041" />
      <rect
         x="245.02"
         y="240.28"
         width="25.51"
         height="25.51"
         fill="#6c63ff"
         opacity="0.2"
         id="rect1043" />
      <rect
         x="279.88"
         y="240.28"
         width="25.51"
         height="25.51"
         fill="#6c63ff"
         opacity="0.7"
         id="rect1045" />
      <rect
         x="314.75"
         y="240.28"
         width="25.51"
         height="25.51"
         fill="#6c63ff"
         opacity="0.7"
         id="rect1047" />
      <rect
         x="349.60999"
         y="240.28"
         width="25.51"
         height="25.51"
         fill="#6c63ff"
         opacity="0.2"
         id="rect1049" />
      <rect
         x="384.48001"
         y="240.28"
         width="25.51"
         height="25.51"
         fill="#6c63ff"
         opacity="0.2"
         id="rect1051" />
      <rect
         x="419.35001"
         y="240.28"
         width="25.51"
         height="25.51"
         fill="#6c63ff"
         opacity="0.4"
         id="rect1053" />
      <rect
         x="454.20999"
         y="240.28"
         width="25.51"
         height="25.51"
         fill="#6c63ff"
         id="rect1055" />
      <rect
         x="489.07999"
         y="240.28"
         width="25.51"
         height="25.51"
         fill="#6c63ff"
         opacity="0.2"
         id="rect1057" />
      <rect
         x="523.94"
         y="240.28"
         width="25.51"
         height="25.51"
         fill="#6c63ff"
         id="rect1059" />
      <rect
         x="558.81"
         y="240.28"
         width="25.51"
         height="25.51"
         fill="#6c63ff"
         id="rect1061" />
      <rect
         x="593.67999"
         y="240.28"
         width="25.51"
         height="25.51"
         fill="#6c63ff"
         id="rect1063" />
      <rect
         x="628.53998"
         y="240.28"
         width="25.51"
         height="25.51"
         fill="#6c63ff"
         opacity="0.2"
         id="rect1065" />
      <rect
         x="663.40997"
         y="240.28"
         width="25.51"
         height="25.51"
         fill="#6c63ff"
         id="rect1067" />
      <rect
         x="698.28003"
         y="240.28"
         width="25.51"
         height="25.51"
         fill="#6c63ff"
         opacity="0.2"
         id="rect1069" />
      <rect
         x="733.14001"
         y="240.28"
         width="25.51"
         height="25.51"
         fill="#6c63ff"
         opacity="0.2"
         id="rect1071" />
      <rect
         x="768.01001"
         y="240.28"
         width="25.51"
         height="25.51"
         fill="#6c63ff"
         opacity="0.2"
         id="rect1073" />
      <rect
         x="802.87"
         y="240.28"
         width="25.51"
         height="25.51"
         fill="#6c63ff"
         opacity="0.2"
         id="rect1075" />
      <rect
         x="837.73999"
         y="240.28"
         width="25.51"
         height="25.51"
         fill="#6c63ff"
         opacity="0.2"
         id="rect1077" />
      <rect
         x="872.60999"
         y="240.28"
         width="25.51"
         height="25.51"
         fill="#6c63ff"
         opacity="0.7"
         id="rect1079" />
      <rect
         x="907.46997"
         y="240.28"
         width="25.51"
         height="25.51"
         fill="#6c63ff"
         opacity="0.2"
         id="rect1081" />
      <rect
         x="942.34003"
         y="240.28"
         width="25.51"
         height="25.51"
         fill="#6c63ff"
         opacity="0.2"
         id="rect1083" />
      <rect
         x="977.20001"
         y="240.28"
         width="25.51"
         height="25.51"
         fill="#6c63ff"
         id="rect1085" />
      <rect
         x="105.55"
         y="272.59"
         width="25.51"
         height="25.51"
         fill="#6c63ff"
         opacity="0.2"
         id="rect1087" />
      <rect
         x="140.42"
         y="272.59"
         width="25.51"
         height="25.51"
         fill="#6c63ff"
         opacity="0.2"
         id="rect1089" />
      <rect
         x="175.28"
         y="272.59"
         width="25.51"
         height="25.51"
         fill="#6c63ff"
         opacity="0.2"
         id="rect1091" />
      <rect
         x="210.14999"
         y="272.59"
         width="25.51"
         height="25.51"
         fill="#6c63ff"
         opacity="0.4"
         id="rect1093" />
      <rect
         x="245.02"
         y="272.59"
         width="25.51"
         height="25.51"
         fill="#6c63ff"
         opacity="0.2"
         id="rect1095" />
      <rect
         x="279.88"
         y="272.59"
         width="25.51"
         height="25.51"
         fill="#6c63ff"
         opacity="0.2"
         id="rect1097" />
      <rect
         x="314.75"
         y="272.59"
         width="25.51"
         height="25.51"
         fill="#6c63ff"
         opacity="0.7"
         id="rect1099" />
      <rect
         x="349.60999"
         y="272.59"
         width="25.51"
         height="25.51"
         fill="#6c63ff"
         opacity="0.2"
         id="rect1101" />
      <rect
         x="384.48001"
         y="272.59"
         width="25.51"
         height="25.51"
         fill="#6c63ff"
         opacity="0.2"
         id="rect1103" />
      <rect
         x="419.35001"
         y="272.59"
         width="25.51"
         height="25.51"
         fill="#6c63ff"
         opacity="0.2"
         id="rect1105" />
      <rect
         x="454.20999"
         y="272.59"
         width="25.51"
         height="25.51"
         fill="#6c63ff"
         id="rect1107" />
      <rect
         x="489.07999"
         y="272.59"
         width="25.51"
         height="25.51"
         fill="#6c63ff"
         opacity="0.2"
         id="rect1109" />
      <rect
         x="523.94"
         y="272.59"
         width="25.51"
         height="25.51"
         fill="#6c63ff"
         id="rect1111" />
      <rect
         x="558.81"
         y="272.59"
         width="25.51"
         height="25.51"
         fill="#6c63ff"
         id="rect1113" />
      <rect
         x="593.67999"
         y="272.59"
         width="25.51"
         height="25.51"
         fill="#6c63ff"
         opacity="0.2"
         id="rect1115" />
      <rect
         x="628.53998"
         y="272.59"
         width="25.51"
         height="25.51"
         fill="#6c63ff"
         opacity="0.2"
         id="rect1117" />
      <rect
         x="663.40997"
         y="272.59"
         width="25.51"
         height="25.51"
         fill="#6c63ff"
         opacity="0.2"
         id="rect1119" />
      <rect
         x="698.28003"
         y="272.59"
         width="25.51"
         height="25.51"
         fill="#6c63ff"
         opacity="0.2"
         id="rect1121" />
      <rect
         x="733.14001"
         y="272.59"
         width="25.51"
         height="25.51"
         fill="#6c63ff"
         opacity="0.2"
         id="rect1123" />
      <rect
         x="768.01001"
         y="272.59"
         width="25.51"
         height="25.51"
         fill="#6c63ff"
         opacity="0.2"
         id="rect1125" />
      <rect
         x="802.87"
         y="272.59"
         width="25.51"
         height="25.51"
         fill="#6c63ff"
         opacity="0.2"
         id="rect1127" />
      <rect
         x="837.73999"
         y="272.59"
         width="25.51"
         height="25.51"
         fill="#6c63ff"
         opacity="0.2"
         id="rect1129" />
      <rect
         x="872.60999"
         y="272.59"
         width="25.51"
         height="25.51"
         fill="#6c63ff"
         opacity="0.2"
         id="rect1131" />
      <rect
         x="907.46997"
         y="272.59"
         width="25.51"
         height="25.51"
         fill="#6c63ff"
         opacity="0.2"
         id="rect1133" />
      <rect
         x="942.34003"
         y="272.59"
         width="25.51"
         height="25.51"
         fill="#6c63ff"
         opacity="0.4"
         id="rect1135" />
      <rect
         x="977.20001"
         y="272.59"
         width="25.51"
         height="25.51"
         fill="#6c63ff"
         id="rect1137" />
      <rect
         x="105.55"
         y="304.91"
         width="25.51"
         height="25.51"
         fill="#6c63ff"
         opacity="0.7"
         id="rect1139" />
      <rect
         x="140.42"
         y="304.91"
         width="25.51"
         height="25.51"
         fill="#6c63ff"
         opacity="0.7"
         id="rect1141" />
      <rect
         x="175.28"
         y="304.91"
         width="25.51"
         height="25.51"
         fill="#6c63ff"
         opacity="0.7"
         id="rect1143" />
      <rect
         x="210.14999"
         y="304.91"
         width="25.51"
         height="25.51"
         fill="#6c63ff"
         opacity="0.7"
         id="rect1145" />
      <rect
         x="245.02"
         y="304.91"
         width="25.51"
         height="25.51"
         fill="#6c63ff"
         opacity="0.7"
         id="rect1147" />
      <rect
         x="279.88"
         y="304.91"
         width="25.51"
         height="25.51"
         fill="#6c63ff"
         opacity="0.2"
         id="rect1149" />
      <rect
         x="314.75"
         y="304.91"
         width="25.51"
         height="25.51"
         fill="#6c63ff"
         opacity="0.2"
         id="rect1151" />
      <rect
         x="349.60999"
         y="304.91"
         width="25.51"
         height="25.51"
         fill="#6c63ff"
         opacity="0.2"
         id="rect1153" />
      <rect
         x="384.48001"
         y="304.91"
         width="25.51"
         height="25.51"
         fill="#6c63ff"
         opacity="0.2"
         id="rect1155" />
      <rect
         x="419.35001"
         y="304.91"
         width="25.51"
         height="25.51"
         fill="#6c63ff"
         opacity="0.2"
         id="rect1157" />
      <rect
         x="454.20999"
         y="304.91"
         width="25.51"
         height="25.51"
         fill="#6c63ff"
         opacity="0.2"
         id="rect1159" />
      <rect
         x="489.07999"
         y="304.91"
         width="25.51"
         height="25.51"
         fill="#6c63ff"
         id="rect1161" />
      <rect
         x="523.94"
         y="304.91"
         width="25.51"
         height="25.51"
         fill="#6c63ff"
         opacity="0.2"
         id="rect1163" />
      <rect
         x="558.81"
         y="304.91"
         width="25.51"
         height="25.51"
         fill="#6c63ff"
         opacity="0.2"
         id="rect1165" />
      <rect
         x="593.67999"
         y="304.91"
         width="25.51"
         height="25.51"
         fill="#6c63ff"
         opacity="0.2"
         id="rect1167" />
      <rect
         x="628.53998"
         y="304.91"
         width="25.51"
         height="25.51"
         fill="#6c63ff"
         id="rect1169" />
      <rect
         x="663.40997"
         y="304.91"
         width="25.51"
         height="25.51"
         fill="#6c63ff"
         opacity="0.2"
         id="rect1171" />
      <rect
         x="698.28003"
         y="304.91"
         width="25.51"
         height="25.51"
         fill="#6c63ff"
         opacity="0.2"
         id="rect1173" />
      <rect
         x="733.14001"
         y="304.91"
         width="25.51"
         height="25.51"
         fill="#6c63ff"
         opacity="0.2"
         id="rect1175" />
      <rect
         x="768.01001"
         y="304.91"
         width="25.51"
         height="25.51"
         fill="#6c63ff"
         opacity="0.2"
         id="rect1177" />
      <rect
         x="802.87"
         y="304.91"
         width="25.51"
         height="25.51"
         fill="#6c63ff"
         opacity="0.2"
         id="rect1179" />
      <rect
         x="837.73999"
         y="304.91"
         width="25.51"
         height="25.51"
         fill="#6c63ff"
         opacity="0.2"
         id="rect1181" />
      <rect
         x="872.60999"
         y="304.91"
         width="25.51"
         height="25.51"
         fill="#6c63ff"
         opacity="0.2"
         id="rect1183" />
      <rect
         x="907.46997"
         y="304.91"
         width="25.51"
         height="25.51"
         fill="#6c63ff"
         opacity="0.2"
         id="rect1185" />
      <rect
         x="942.34003"
         y="304.91"
         width="25.51"
         height="25.51"
         fill="#6c63ff"
         opacity="0.2"
         id="rect1187" />
      <rect
         x="977.20001"
         y="304.91"
         width="25.51"
         height="25.51"
         fill="#6c63ff"
         id="rect1189" />
      <circle
         cx="734.52002"
         cy="363.89001"
         r="34.869999"
         fill="#767d9f"
         id="circle1191" />
      <path
         d="m 760.71,460.87 q 5.22,22.78 8.86,45.9 c 0.73,4.58 1.38,9.41 -0.28,13.74 -1.39,3.61 -4.22,6.43 -6.44,9.59 -2.22,3.16 -3.9,7.21 -2.55,10.83 1.35,3.62 5.29,5.6 9.05,6.62 10.76,2.9 22.23,0.79 32.94,-2.35 a 53.29,53.29 0 0 0 13.81,-5.72 c 4.54,-2.88 8.26,-6.88 11.68,-11 15.61,-18.93 25.83,-41.65 35.45,-64.23 a 39.12,39.12 0 0 1 -33.11,-13.34 c -3.94,-4.63 -6.83,-11.08 -4.61,-16.74 -6.51,3.57 -14.24,3.81 -21.25,6.25 a 75.49,75.49 0 0 0 -12.5,6.15 q -7.18,4.15 -14.28,8.46 c -5.41,3.26 -10.48,6.16 -16.77,5.84 z"
         transform="translate(-28,-141.34)"
         fill="#ae6e79"
         id="path1193" />
      <path
         d="m 833.64,487.05 c -6.11,11.89 -14.06,23.32 -25.41,30.4 -11.35,7.08 -26.63,9 -38,2 -5.6,-3.42 -9.84,-8.62 -14.73,-13 -4.89,-4.38 -11,-8.13 -17.57,-7.56 -7.24,0.63 -12.91,6.28 -17.76,11.69 -7.36,8.22 -14.47,16.79 -19.68,26.52 -10,18.7 -12.37,40.56 -11.93,61.76 0.44,21.2 3.51,42.29 3.58,63.49 0.1,26.08 -4.32,51.95 -8.79,77.64 41.1,-5.06 82.25,6 123.44,10.19 26.36,2.71 52.92,2.65 79.42,2.58 4.66,0 9.62,-0.12 13.5,-2.7 a 18.2,18.2 0 0 0 5.59,-6.64 c 3.66,-6.75 5.13,-14.45 6.15,-22.06 2.59,-19.22 2.67,-38.68 2.74,-58.08 0.18,-47 0.35,-94.17 -5.62,-140.8 -1.47,-11.47 -3.35,-23 -7.75,-33.73 -4.4,-10.73 -11.58,-20.6 -21.62,-26.35 -6.45,-3.7 -21.4,-10.14 -29,-6.41 -8.53,4.16 -12.47,23.1 -16.56,31.06 z"
         transform="translate(-28,-141.34)"
         fill="#767d9f"
         id="path1195" />
      <path
         d="m 836.68,619.77 c -1.55,-29 -7.86,-59.95 5.57,-85.69 3.3,-6.32 -8.54,-14.21 -4.88,-20.33 a 92.08,92.08 0 0 0 10.06,-23.93 c 0.76,-2.89 1.37,-5.95 0.65,-8.85 -1.33,-5.29 -6.56,-8.44 -11,-11.66 -4.9,-3.56 -7.42,-14.41 -9,-20.28 -1.58,-5.87 12.57,1.2 18.26,-0.89 7.9,-2.89 17.94,-1.07 25.82,1.86 4.4,1.62 9.18,1.76 13.87,1.88 9.11,0.24 18.25,0.47 27.29,-0.65 4.06,-0.51 8.13,-1.28 12.21,-1.05 10.41,0.59 19.46,7.71 25.62,16.13 6.16,8.42 10.08,18.23 15.13,27.35 4.21,7.6 9.23,14.78 12.82,22.69 3.18,7 5.19,14.52 7.18,22 l 5.13,19.19 a 25.58,25.58 0 0 1 1.26,8.51 c -0.26,3.07 -1.62,5.93 -3,8.66 A 164.12,164.12 0 0 1 971,603.2 c -10.79,13.23 -23.89,25.16 -30.3,41 -2.5,6.17 -3.89,12.73 -5.16,19.27 a 707.94,707.94 0 0 0 -10.9,79.15 174.2,174.2 0 0 0 -36.52,-12.21 177.61,177.61 0 0 0 -19,-3 c -5.59,-0.58 -12.8,0.52 -18.12,-1 -8.9,-2.53 -9.88,-17.58 -11.23,-25.46 -2.16,-12.55 -2.59,-25.32 -2.67,-38 -0.1,-14.42 0.35,-28.81 -0.42,-43.18 z"
         transform="translate(-28,-141.34)"
         fill="#4c4981"
         id="path1197" />
      <path
         d="m 641.23,565.54 c 4.21,24 8.85,48.07 18,70.62 -0.23,0.22 -0.46,0.42 -0.69,0.62 -0.81,0.69 -1.65,1.34 -2.53,2 -2.05,1.44 -4.3,2.66 -6,4.54 a 8,8 0 0 0 -1.5,2.45 5.48,5.48 0 0 0 0,4.47 c -4.77,2.11 -10.31,1.46 -15.66,1.26 -4.61,-0.17 -9.08,0 -12.78,2.53 -5.14,3.54 -6.69,10.34 -7.52,16.52 q -0.46,3.38 -0.79,6.77 -0.32,3.15 -0.52,6.32 a 188.61,188.61 0 0 0 -0.19,21 q 0.08,1.92 0.21,3.84 c -16.34,-0.39 -31.23,-8.91 -45.32,-17.19 -3.22,-1.89 -6.54,-3.88 -8.63,-7 A 15.8,15.8 0 0 1 555,674 c 0,-0.51 0.09,-1 0.16,-1.52 a 41.58,41.58 0 0 1 2.29,-8.68 107.2,107.2 0 0 1 19.19,-32.65 c 3.58,-4.18 7.61,-8.27 9.28,-13.52 0.73,-2.29 1,-4.72 1.74,-7 3.32,-9.88 15.3,-14.55 19.4,-24.14 1,-2.29 1.46,-4.8 2.7,-7 a 17.63,17.63 0 0 1 4.25,-4.75 c 0.73,-0.61 1.49,-1.2 2.24,-1.79 q 10.54,-8.26 20.31,-17.45 1.82,-1.71 3.6,-3.46 a 59.48,59.48 0 0 0 1.07,13.5 z"
         transform="translate(-28,-141.34)"
         fill="#4c4981"
         id="path1199" />
      <path
         d="m 742,494.56 c -1.44,1.52 -3,2.95 -4.53,4.37 l -0.41,0.37 -1.62,1.5 a 39,39 0 0 0 -7.55,8.79 l -0.17,0.28 c -5.1,9.13 -3.21,20.37 -1.79,30.74 a 261.55,261.55 0 0 1 2.37,39 c -0.26,18 -2.38,35.88 -2.42,53.86 0,4.08 0.09,8.15 0.27,12.23 0.29,6.63 0.79,13.25 1.39,19.87 0.65,7.26 1.43,14.51 2.16,21.76 0.58,5.61 1.13,11.21 1.59,16.81 0.23,2.9 0.45,5.79 0.63,8.69 0.21,3.4 0.38,6.81 0.48,10.21 v 0 c 0.07,2.16 0.11,4.31 0.11,6.47 0,1.23 0,2.45 0,3.67 q 0,3.51 -0.19,7 -0.2,4.49 -0.61,9 c -0.31,3.27 -0.86,6.84 -3.16,9.14 -0.14,0.14 -0.29,0.27 -0.44,0.4 l -3.24,-0.4 a 332.72,332.72 0 0 0 -67.3,-1.2 c 0.49,-3.38 0.94,-6.75 1.38,-10.14 0.2,-1.6 0.4,-3.21 0.59,-4.82 q 0.33,-2.76 0.63,-5.52 c 0.23,-2 0.44,-4 0.64,-6 q 0.78,-7.73 1.37,-15.47 0.87,-11.29 1.32,-22.62 0.22,-5.41 0.34,-10.83 0.17,-6.72 0.16,-13.45 0,-6.54 -0.11,-13.1 c 0,-1.44 -0.06,-2.88 -0.18,-4.31 a 27.35,27.35 0 0 0 -0.53,-3.83 49.87,49.87 0 0 0 -3,-8.48 c -0.22,-0.52 -0.43,-1 -0.64,-1.55 -0.12,-0.27 -0.23,-0.55 -0.34,-0.82 5.76,-5.13 9.86,-12 13.8,-18.76 6.39,-10.89 12.93,-22.26 14,-34.84 1.07,-12.58 -5.18,-26.71 -17.2,-30.55 -3.27,-1 -6.73,-1.28 -10.1,-1.87 -3.18,-0.56 -9.81,-1.83 -13.49,-4.11 q -3,3.08 -6,6.05 a 22.15,22.15 0 0 1 2.17,-8.71 l 1.42,0.07 a 2.71,2.71 0 0 1 -0.16,-1 c 0,-1.07 0.74,-2.28 2.32,-3.62 4.71,-4 12.12,-4.89 15.09,-10.3 1.24,-2.25 1.45,-4.93 2.45,-7.29 2.87,-6.73 11.11,-9.21 16.07,-14.59 4.96,-5.38 6.2,-13 10.21,-19 a 28.62,28.62 0 0 1 12,-10 c 0.4,-0.19 0.81,-0.38 1.22,-0.55 8.3,-3.55 18.16,-4.36 26.76,-4.34 3.34,0 12,0.1 16.24,1.79 a 5.32,5.32 0 0 1 1.85,1.13 c 4.52,4.92 -2.51,15.31 -5.85,18.87 z"
         transform="translate(-28,-141.34)"
         fill="#4c4981"
         id="path1201" />
      <path
         d="m 642.72,542.69 a 60.88,60.88 0 0 1 46.74,4.87 c 7.2,4 13.66,9.58 17.62,16.78 5.95,10.8 5.69,23.82 5.27,36.15 -0.21,6.17 -0.48,12.56 -3.2,18.1 C 706,625 700.06,629.4 694,633 a 42.24,42.24 0 0 1 -12.32,5.33 c -6.72,1.46 -13.7,0.22 -20.47,-1 -7.36,-1.36 -15.26,-3 -20.37,-8.48 -3,-3.18 -4.64,-7.31 -6.26,-11.35 q -3.49,-8.75 -7,-17.48 c -4.05,-10.11 -5.42,-18.52 -0.07,-28.37 2.43,-4.49 5.4,-8.69 7.8,-13.21 1.2,-2.3 5.5,-15.16 7.41,-15.75 z"
         transform="translate(-28,-141.34)"
         fill="#4c4981"
         id="path1203" />
      <path
         d="m 1063,715.56 v 29.9 a 167.3,167.3 0 0 1 -64.73,12.8 H 728.58 c -0.14,0.14 -0.29,0.27 -0.44,0.4 l -3.24,-0.4 H 245.17 c -40.25,0 -77.55,-10.86 -108.14,-29.36 v -45.65 l 230.72,-26.63 h 0.18 l 134.36,11.38 34.77,3 18.06,1.53 37.38,3.17 19.23,1.63 28,2.38 3.94,0.33 20.18,1.71 27.38,2.25 38.5,3.26 64.18,5.45 45.15,3.83 74.14,6.29 14.1,1.19 1.52,0.13 1.32,0.11 18.62,1.58 20.44,1.74 2.37,0.2 z"
         transform="translate(-28,-141.34)"
         fill="#504f60"
         id="path1205" />
      <polygon
         points="764,573.12 474.86,523.77 463.65,580.46 596.19,596.33 637,601.44 749.26,579.33 "
         fill="#9c9ca1"
         id="polygon1207" />
      <path
         d="m 642.33,739.94 144.86,-27.23 a 5,5 0 0 1 5.94,4.93 v 0 a 5,5 0 0 1 -4.09,4.93 l -141.47,26.49 z"
         transform="translate(-28,-141.34)"
         fill="#9c9ca1"
         id="path1209" />
      <path
         d="m 705.17,654.31 c 4.51,-0.42 9.08,-1.13 13.14,-3.13 5,-2.49 8.89,-6.78 13.52,-9.94 10.18,-7 23.8,-7.94 35.47,-3.92 11.67,4.02 21.41,12.63 28.23,22.91 4.53,6.85 7.93,15.59 4.73,23.15 a 30.51,30.51 0 0 1 -4.12,6.44 l -8.34,10.9 a 29,29 0 0 1 -5.66,6.09 c -3.12,2.27 -7,3.2 -10.82,3.76 -10.15,1.48 -20.48,0.64 -30.71,1.32 -17.57,1.17 -34.73,6.83 -52.34,6.64 -10.12,-0.11 -20.11,-2.15 -30,-4.19 l -43.77,-9 c -7.62,-1.56 -16.23,-3.84 -19.82,-10.75 -1.61,-3.11 -1.91,-6.71 -2.1,-10.21 -0.52,-9.64 0,-20.36 6.68,-27.31 6.28,-6.52 16.21,-8.58 23.71,-13.4 9.18,-5.91 12.21,-4 21.89,0.44 a 120,120 0 0 0 60.31,10.2 z"
         transform="translate(-28,-141.34)"
         fill="#ae6e79"
         id="path1211" />
      <path
         d="m 705.17,654.31 c 4.51,-0.42 9.08,-1.13 13.14,-3.13 5,-2.49 8.89,-6.78 13.52,-9.94 10.18,-7 23.8,-7.94 35.47,-3.92 11.67,4.02 21.41,12.63 28.23,22.91 4.53,6.85 7.93,15.59 4.73,23.15 a 30.51,30.51 0 0 1 -4.12,6.44 l -8.34,10.9 a 29,29 0 0 1 -5.66,6.09 c -3.12,2.27 -7,3.2 -10.82,3.76 -10.15,1.48 -20.48,0.64 -30.71,1.32 -17.57,1.17 -34.73,6.83 -52.34,6.64 -10.12,-0.11 -20.11,-2.15 -30,-4.19 l -43.77,-9 c -7.62,-1.56 -16.23,-3.84 -19.82,-10.75 -1.61,-3.11 -1.91,-6.71 -2.1,-10.21 -0.52,-9.64 0,-20.36 6.68,-27.31 6.28,-6.52 16.21,-8.58 23.71,-13.4 9.18,-5.91 12.21,-4 21.89,0.44 a 120,120 0 0 0 60.31,10.2 z"
         transform="translate(-28,-141.34)"
         opacity="0.05"
         id="path1213" />
      <path
         d="m 880.94,640.6 c -12.28,4.75 -24.63,9.52 -37.49,12.35 -21.56,4.75 -44.12,4 -65.51,9.43 -11.3,2.88 -22.53,7.52 -34.14,6.58 -5.19,-0.42 -10.2,-2 -15.25,-3.2 -28.37,-7 -60.62,-4.73 -83.66,13.27 -7.88,6.15 -14.33,13.82 -20.18,22 a 14.7,14.7 0 0 0 5.91,21.88 86.62,86.62 0 0 0 28.38,7.57 c 13.13,1.16 26.32,-0.7 39.38,-2.56 19.38,-2.75 38.77,-5.51 58.1,-8.6 6.94,-1.11 13.88,-2.26 20.86,-3.14 50.23,-6.35 101.37,1.37 151.73,-3.93 5.09,-0.54 10.27,-1.24 14.9,-3.41 11.72,-5.5 17.52,-20 15.1,-32.74 -2.42,-12.74 -11.76,-23.33 -23,-29.83 -9.42,-5.47 -19.58,-7.68 -30.07,-10 -9.74,-2.27 -15.68,0.73 -25.06,4.33 z"
         transform="translate(-28,-141.34)"
         fill="#ae6e79"
         id="path1215" />
      <path
         d="m 988.67,564.44 c 5.54,7.26 6.72,17 6.12,26.09 -0.6,9.09 -2.76,18.08 -3.08,27.21 -0.44,12.52 2.58,25 2.07,37.48 -0.36,8.73 -2.43,17.29 -4.88,25.67 -2.89,9.89 -7.07,20.52 -16.2,25.27 -12.12,6.31 -37.54,2.76 -50.29,7.7 1.16,-7.23 12.28,-17.7 13.44,-24.93 0.8,-5 1.61,-10.14 0.75,-15.15 -1.1,-6.39 -4.85,-12.06 -9.3,-16.78 -7.08,-7.51 -16.32,-13.16 -26.47,-15 -10.15,-1.84 -35,-0.33 -43.12,6.08 -1,-6.62 17.6,-13 24.14,-14.43 3.26,-0.73 7,-0.32 9.61,-2.39 5,-3.92 1.37,-11.73 1.61,-18 0.19,-5 3.11,-9.58 3.7,-14.58 1,-8 -4.22,-16.15 -2.17,-24 0.76,-2.9 2.45,-5.45 3.62,-8.21 3.56,-8.45 2,-18.09 0.1,-27.07 -1.18,-5.64 -2.33,-12 0.81,-16.81 2.91,-4.49 11.17,11.5 16.46,10.76 17.47,-2.45 33.28,-15.4 47.39,-4.8 7.19,5.4 8.13,11 11,18.71 2.79,7.34 10.02,11.1 14.69,17.18 z"
         transform="translate(-28,-141.34)"
         opacity="0.1"
         id="path1217" />
      <path
         d="m 991.67,564.44 c 5.54,7.26 6.72,17 6.12,26.09 -0.6,9.09 -2.76,18.08 -3.08,27.21 -0.44,12.52 2.58,25 2.07,37.48 -0.36,8.73 -2.43,17.29 -4.88,25.67 -2.89,9.89 -7.07,20.52 -16.2,25.27 -12.12,6.31 -37.54,2.76 -50.29,7.7 1.16,-7.23 12.28,-17.7 13.44,-24.93 0.8,-5 1.61,-10.14 0.75,-15.15 -1.1,-6.39 -4.85,-12.06 -9.3,-16.78 -7.08,-7.51 -16.32,-13.16 -26.47,-15 -10.15,-1.84 -35,-0.33 -43.12,6.08 -1,-6.62 17.6,-13 24.14,-14.43 3.26,-0.73 7,-0.32 9.61,-2.39 5,-3.92 1.37,-11.73 1.61,-18 0.19,-5 3.11,-9.58 3.7,-14.58 1,-8 -4.22,-16.15 -2.17,-24 0.76,-2.9 2.45,-5.45 3.62,-8.21 3.56,-8.45 2,-18.09 0.1,-27.07 -1.18,-5.64 -2.33,-12 0.81,-16.81 2.91,-4.49 8.6,-6.19 13.89,-6.94 a 68.42,68.42 0 0 1 50,12.9 c 7.19,5.4 8.13,11 11,18.71 2.75,7.34 9.98,11.1 14.65,17.18 z"
         transform="translate(-28,-141.34)"
         fill="#4c4981"
         id="path1219" />
      <path
         d="M 330,517.06 384.37,718 a 12.55,12.55 0 0 0 10.91,9.21 L 640,750.72 a 12.54,12.54 0 0 0 13.38,-15.48 L 593.84,492.86 a 12.54,12.54 0 0 0 -13.12,-9.51 L 341.13,501.27 A 12.54,12.54 0 0 0 330,517.06 Z"
         transform="translate(-28,-141.34)"
         fill="#9c9ca1"
         id="path1221" />
      <ellipse
         cx="787.10999"
         cy="387.67999"
         rx="26.9"
         ry="27.25"
         fill="#ffffff"
         id="ellipse1223" />
      <path
         d="m 837.2,479.31 c 0,0 5.67,16.86 -11.06,23.95 L 824,507 l 10.48,10.34 c 0,0 12.92,-23.57 11.52,-31.94 0,0 -2,-8.5 -8.8,-6.09 z"
         transform="translate(-28,-141.34)"
         fill="#ffffff"
         id="path1225" />
      <circle
         cx="790.20001"
         cy="388.98999"
         r="25.940001"
         fill="#6c63ff"
         id="circle1227" />
      <path
         d="m 846.13,489.23 -4.12,-6.8 -6,-0.85 c 1.28,-22.39 -4.53,-29.06 -4.53,-29.06 l -1.35,-0.13 -5.88,-0.57 -11.06,-11.48 v -3.26 c 15.54,1.85 24.13,9.23 28.77,17.88 8.2,15.18 4.17,34.27 4.17,34.27 z"
         transform="translate(-28,-141.34)"
         fill="#6c63ff"
         id="path1229" />
      <path
         d="m 830.18,448.27 v 4.12 l -5.88,-0.57 -11.06,-11.48 c 0,0 17.11,3.83 16.94,7.93 z"
         transform="translate(-28,-141.34)"
         stroke="#4c4981"
         stroke-miterlimit="10"
         opacity="0.1"
         id="path1231" />
      <path
         d="m 846.13,489.23 -4.12,-6.8 V 455 c 8.15,15.14 4.12,34.23 4.12,34.23 z"
         transform="translate(-28,-141.34)"
         stroke="#4c4981"
         stroke-miterlimit="10"
         opacity="0.1"
         id="path1233" />
      <ellipse
         cx="757.10999"
         cy="518.20001"
         rx="14.43"
         ry="26.32"
         transform="rotate(-30,479.36303,499.78494)"
         fill="#ffffff"
         id="ellipse1235" />
      <path
         d="m 761,516 c 7.27,12.59 16.19,21 9.29,25 -6.9,4 -27,2 -34.27,-10.6 -7.27,-12.6 -0.67,-30 6.23,-34 6.9,-4 11.47,6.98 18.75,19.6 z"
         transform="translate(-28,-141.34)"
         fill="#6c63ff"
         id="path1237" />
      <path
         d="m 825.73,425.3 c 0,40.23 -27.53,79 -67.76,79 a 72.85,72.85 0 0 1 0,-145.7 c 40.23,0.04 67.76,26.46 67.76,66.7 z"
         transform="translate(-28,-141.34)"
         opacity="0.1"
         id="path1239" />
      <circle
         cx="729.96997"
         cy="288.14999"
         r="72.849998"
         fill="#ae6e79"
         id="circle1241" />
      <path
         d="m 751.57,397.21 c 8.67,3.19 13.8,12.15 21.58,17.14 11,7 25.32,5.19 37.88,1.73 7,-1.91 14.32,-4.24 21.21,-2.12 a 6,6 0 0 0 3.23,0.46 c 1.5,-0.43 2.24,-2.09 2.73,-3.57 8.52,-25.4 4.69,-54.17 -8.17,-77.67 -3.32,-6.06 -7.3,-11.92 -12.78,-16.13 -4.32,-3.31 -9.4,-5.48 -14.52,-7.33 a 145,145 0 0 0 -28.88,-7.13 17.94,17.94 0 0 0 -5.27,-0.17 c -2.41,0.39 -4.57,1.69 -6.72,2.85 A 68.78,68.78 0 0 1 732,313.38 c -14,0.53 -30,-2.77 -40.79,6.21 -13,10.77 -9.76,31.78 -18.19,46.4 -5.58,9.67 -16.34,16.69 -18.11,27.7 a 25.57,25.57 0 0 0 0.63,10.07 c 4.12,16.94 20.52,30.06 38,30.37 a 14.42,14.42 0 0 0 7.76,-1.59 17.55,17.55 0 0 0 4.09,-3.89 c 11.45,-13.56 24.55,-39.4 46.18,-31.44 z"
         transform="translate(-28,-141.34)"
         fill="#444053"
         id="path1243" />
      <path
         d="m 838.2,403.48 c -0.49,1.48 -1.23,3.14 -2.73,3.57 a 6,6 0 0 1 -3.23,-0.46 c -6.89,-2.12 -14.25,0.21 -21.2,2.12 -12.57,3.46 -26.92,5.31 -37.88,-1.73 -7.79,-5 -12.91,-14 -21.59,-17.14 -21.63,-8 -34.73,17.88 -46.21,31.44 a 17.55,17.55 0 0 1 -4.09,3.89 14.42,14.42 0 0 1 -7.76,1.59 c -17.42,-0.31 -33.83,-13.43 -38,-30.37 -0.23,-1 -0.43,-2 -0.58,-3 0,0.09 0,0.17 -0.05,0.26 a 25.57,25.57 0 0 0 0.63,10.07 c 4.12,16.94 20.53,30.06 38,30.37 a 14.42,14.42 0 0 0 7.76,-1.59 17.55,17.55 0 0 0 4.09,-3.89 c 11.48,-13.56 24.58,-39.4 46.21,-31.44 8.68,3.19 13.8,12.15 21.59,17.14 11,7 25.31,5.19 37.88,1.73 7,-1.91 14.31,-4.24 21.2,-2.12 a 6,6 0 0 0 3.23,0.46 c 1.5,-0.43 2.24,-2.09 2.73,-3.57 a 90.29,90.29 0 0 0 4.48,-32.26 88.8,88.8 0 0 1 -4.48,24.93 z"
         transform="translate(-28,-141.34)"
         opacity="0.1"
         id="path1245" />
    </g>
    <text
       xml:space="preserve"
       style="font-size:19.8491px;line-height:28.3936px;font-family:'PT Sans';-inkscape-font-specification:'PT Sans, Normal';stroke-width:1.13583;stroke-miterlimit:4;stroke-dasharray:none"
       x="22.703524"
       y="37.827663"
       id="text1464"><tspan
         sodipodi:role="line"
         id="tspan1462"
         x="22.703524"
         y="37.827663"
         style="fill:#150485;fill-opacity:1;stroke-width:1.13583;stroke-miterlimit:4;stroke-dasharray:none">Front-end Developer</tspan></text>
    <text
       xml:space="preserve"
       style="font-size:7.05381px;line-height:10.0902px;font-family:'PT Sans';-inkscape-font-specification:'PT Sans, Normal';opacity:0.55;stroke-width:0.403609"
       x="24.650541"
       y="57.412945"
       id="text1468"><tspan
         sodipodi:role="line"
         id="tspan1466"
         x="24.650541"
         y="57.412945"
         style="fill:#150485;fill-opacity:1;stroke-width:0.403609">Interested in learning new things continuously</tspan></text>
    <g
       id="g2158"
       transform="matrix(0.07212932,0,0,0.07212932,25.259712,92.521457)">
      <path
         d="m 664.875,720.92 a 90.42786,90.42786 0 0 1 -19.39014,10.58 c -1.7998,0.72 -3.60986,1.39 -5.45019,2 H 546.105 c -0.37988,-0.66 -0.75,-1.33 -1.12988,-2 -7.62012,-13.64 -14.53028,-27.81 -16.49024,-43.22 -2.35009,-18.5 4.24024,-39.45 20.53028,-48.54 a 32.58509,32.58509 0 0 1 6.73974,-2.82 c 0.97022,-0.3 1.96,-0.54 2.96,-0.75 a 35.21625,35.21625 0 0 1 40.9502,45.78 c 13.81006,-14.16 11.23,-37.12 6.46973,-56.31 -4.77,-19.19 -10.54981,-40.55 -0.83985,-57.79 5.39014,-9.59 14.87988,-15.54 25.52,-17.94 0.33008,-0.0699 0.66016,-0.13995 0.98,-0.2 a 51.406,51.406 0 0 1 36.93018,6.47 c 20.35986,12.82 30.80957,37.15 34.1997,60.97 5.47014,38.34 -6.62994,81.12 -38.04986,103.77 z"
         transform="translate(-195.76514,-166.5)"
         fill="#f2f2f2"
         id="path2031" />
      <path
         d="m 566.085,648.39 a 79.1513,79.1513 0 0 1 6.83984,49.29 81.30506,81.30506 0 0 1 -14.96,33.82 c -0.50976,0.68 -1.02978,1.35 -1.56,2 h -3.71 c 0.57032,-0.65 1.12989,-1.32 1.66016,-2 a 77.2942,77.2942 0 0 0 15.93994,-61.25 78.02768,78.02768 0 0 0 -14.54,-33.33 c 0.97022,-0.3 1.96,-0.54 2.96,-0.75 a 79.95893,79.95893 0 0 1 7.37006,12.22 z"
         transform="translate(-195.76514,-166.5)"
         fill="#ffffff"
         id="path2033" />
      <path
         d="m 655.94482,659.46 a 87.38853,87.38853 0 0 1 -6.02978,24.62 75.87862,75.87862 0 0 1 -11.78027,19.24 c -9.92969,11.95 -23.06983,20.94 -37.33985,26.92 q -1.56006,0.66 -3.1499,1.26 c -1.84033,0.72 -3.7002,1.38 -5.57031,2 h -10.12989 c 2.39014,-0.6 4.77,-1.27 7.12012,-2 a 118.81121,118.81121 0 0 0 16.31006,-6.43 90.56485,90.56485 0 0 0 33.87988,-27.79 c 9.48975,-13.1 13.68018,-28.85 14.39991,-44.86 0.76025,-17.13 -1.46973,-34.57 -5.37989,-51.24 a 214.81959,214.81959 0 0 0 -18.06982,-49.23 1.54519,1.54519 0 0 1 0.60986,-2.04 1.33644,1.33644 0 0 1 0.98,-0.2 1.1452,1.1452 0 0 1 0.75977,0.64 c 0.99023,1.93005 1.96045,3.86 2.89013,5.81 a 218.02689,218.02689 0 0 1 17.03028,51.08 c 3.42967,17.04 5.26951,34.87 3.4697,52.22 z"
         transform="translate(-195.76514,-166.5)"
         fill="#ffffff"
         id="path2035" />
      <path
         d="m 238.23486,449.5 a 42,42 0 1 1 42,-42 42.04766,42.04766 0 0 1 -42,42 z m 0,-82 a 40,40 0 1 0 40,40 40.04528,40.04528 0 0 0 -40,-40 z"
         transform="translate(-195.76514,-166.5)"
         fill="#3f3d56"
         id="path2037" />
      <path
         d="m 408.23486,314.5 a 42,42 0 1 1 42,-42 42.04766,42.04766 0 0 1 -42,42 z m 0,-82 a 40,40 0 1 0 40,40 40.04528,40.04528 0 0 0 -40,-40 z"
         transform="translate(-195.76514,-166.5)"
         fill="#3f3d56"
         id="path2039" />
      <path
         d="m 590.23486,250.5 a 42,42 0 1 1 42,-42 42.04766,42.04766 0 0 1 -42,42 z m 0,-82 a 40,40 0 1 0 40,40 40.04521,40.04521 0 0 0 -40,-40 z"
         transform="translate(-195.76514,-166.5)"
         fill="#3f3d56"
         id="path2041" />
      <path
         d="m 784.23486,316.5 a 42,42 0 1 1 42,-42 42.04766,42.04766 0 0 1 -42,42 z m 0,-82 a 40,40 0 1 0 40,40 40.04521,40.04521 0 0 0 -40,-40 z"
         transform="translate(-195.76514,-166.5)"
         fill="#3f3d56"
         id="path2043" />
      <path
         d="m 962.23486,417.5 a 42,42 0 1 1 42.00004,-42 42.04766,42.04766 0 0 1 -42.00004,42 z m 0,-82 a 40,40 0 1 0 40.00004,40 40.04521,40.04521 0 0 0 -40.00004,-40 z"
         transform="translate(-195.76514,-166.5)"
         fill="#3f3d56"
         id="path2045" />
      <path
         d="m 432.23486,260.99774 5,-1 c 0,0 -4.2,4.7 -5,5 v 0 a 20.12445,20.12445 0 0 0 0,3 c -9.6,41.2 -45,23 -45,23 12.9,0.3 14,-5 14,-5 -7.5,-1.1 -9,-6 -9,-6 a 3.09,3.09 0 0 0 4,-1 c -8.1,-2.1 -7,-10 -7,-10 a 10.40021,10.40021 0 0 0 4.9,1.9 c -0.9,-1.1 -8.5,-10.2 -3.9,-14.9 0,0 5.6,10 20.3,10.9 l 1,-0.2 a 7.8504,7.8504 0 0 1 -0.2,-2.2 10.5,10.5 0 0 1 10.5,-10.5 c 7,0 8.5,4 8.5,4 l 5,-3 c -0.1,0 -0.6,5 -3.1,6 z"
         transform="translate(-195.76514,-166.5)"
         fill="#3f3d56"
         id="path2047" />
      <polygon
         points="566.808,545.029 592.86,505.136 576.613,497.172 555.799,539.633 "
         fill="#ffb8b8"
         id="polygon2049" />
      <path
         d="m 750.51832,701.16257 21.6793,10.62689 8.8e-4,4.3e-4 a 15.386,15.386 0 0 1 7.0428,20.58831 l -0.22009,0.449 -35.49535,-17.39948 z"
         transform="translate(-195.76514,-166.5)"
         fill="#2f2e41"
         id="path2051" />
      <polygon
         points="677.153,558.442 682.985,511.155 664.891,511.155 664.893,558.443 "
         fill="#ffb8b8"
         id="polygon2053" />
      <path
         d="m 857.53075,716.94044 24.1438,-10e-4 h 0.001 a 15.38605,15.38605 0 0 1 15.38645,15.38625 v 0.5 l -39.53051,10e-4 z"
         transform="translate(-195.76514,-166.5)"
         fill="#2f2e41"
         id="path2055" />
      <circle
         cx="638.55878"
         cy="207.52824"
         r="24.561029"
         fill="#ffb8b8"
         id="circle2057" />
      <path
         d="m 858.78174,709.3457 a 4.50015,4.50015 0 0 1 -4.49048,-4.30371 l -9.49365,-126.36133 a 1.50039,1.50039 0 0 0 -2.82837,-0.647 l -60.73145,115.94241 a 4.52273,4.52273 0 0 1 -5.99878,1.937 l -16.92993,-8.46534 a 4.50886,4.50886 0 0 1 -2.0227,-6.01611 L 792.52515,608 816.52783,552.99463 c 9.26465,-18.249 19.10279,-27.65332 30.07642,-28.75049 11.25805,-1.124 23.28076,6.6167 36.76172,23.667 l 0.10986,0.13916 -0.002,0.17725 -2,154.35742 a 4.47894,4.47894 0 0 1 -4.08008,4.47412 l -18.17138,2.26563 q -0.22156,0.0213 -0.44043,0.021 z"
         transform="translate(-195.76514,-166.5)"
         fill="#2f2e41"
         id="path2059" />
      <path
         d="M 808.40139,561.87807 A 10.74267,10.74267 0 0 0 810.77,545.57663 l 3.70353,-97.85548 -18,2.24325 -1.51775,95.19921 a 10.80091,10.80091 0 0 0 13.4456,16.71446 z"
         transform="translate(-195.76514,-166.5)"
         fill="#ffb8b8"
         id="path2061" />
      <path
         d="M 819.78781,465.02187 795.61557,462.275 a 4.81688,4.81688 0 0 1 -4.11084,-6.02512 l 6.24058,-23.43752 a 13.37737,13.37737 0 0 1 26.57458,3.09873 l 0.82582,24.16161 a 4.81687,4.81687 0 0 1 -5.3579,4.94913 z"
         transform="translate(-195.76514,-166.5)"
         fill="#6c63ff"
         id="path2063" />
      <path
         d="m 923.91417,403.42193 a 10.52722,10.52722 0 0 0 -0.2393,1.64013 l -42.95744,24.782 -10.44143,-6.01095 -11.13116,14.57227 17.45034,12.43755 a 8,8 0 0 0 9.59819,-0.23384 l 44.29652,-34.94583 a 10.4971,10.4971 0 1 0 -6.57573,-12.24133 z"
         transform="translate(-195.76514,-166.5)"
         fill="#ffb8b8"
         id="path2065" />
      <path
         d="m 879.28131,431.01779 -13.88374,17.994 a 4.5,4.5 0 0 1 -6.80392,0.37267 L 842.87633,433.06325 A 12.49742,12.49742 0 0 1 858.203,413.31908 l 19.713,11.02279 a 4.5,4.5 0 0 1 1.36538,6.67592 z"
         transform="translate(-195.76514,-166.5)"
         fill="#6c63ff"
         id="path2067" />
      <path
         d="M 890.60684,555.56344 863.953,425.73434 a 24.34536,24.34536 0 0 0 -27.8501,-19.1181 l -8.88916,1.48156 a 23.83816,23.83816 0 0 0 -15.47949,9.65845 v 0 A 33.29042,33.29042 0 0 0 806.7611,446.066 l 14.7124,52.65515 -10.91845,56.41211 a 3.99588,3.99588 0 0 0 4.48681,4.72034 c 5.46631,-0.7821 14.47657,-1.89844 24.8252,-2.50671 l 5.60644,-21.62574 2.28028,21.28235 c 12.7124,-0.35583 26.5122,0.26709 37.89648,3.22461 a 4.00314,4.00314 0 0 0 4.95658,-4.66467 z"
         transform="translate(-195.76514,-166.5)"
         fill="#6c63ff"
         id="path2069" />
      <path
         d="m 843.77483,368.56374 c 6.31271,4.32051 14.60145,8.76174 21.04891,4.16075 4.23352,-3.02109 5.56737,-8.61545 3.85059,-13.52487 -3.08725,-8.82857 -11.56942,-12.71531 -19.68051,-15.69458 -10.54441,-3.87306 -22.02573,-6.95424 -32.91112,-4.18055 -10.88539,2.77369 -20.50561,13.31291 -18.54058,24.37292 1.58022,8.89423 9.97,16.29492 8.779,25.24958 -1.19867,9.01215 -11.33379,13.7559 -20.28149,15.36659 -8.9477,1.61069 -18.96039,2.12821 -25.39074,8.5552 -8.2031,8.19879 -6.15465,22.85324 1.56413,31.50954 7.71878,8.6563 19.36684,12.58012 30.65381,15.24758 14.95454,3.53422 31.12905,5.3916 45.33208,-0.47379 14.20303,-5.86539 25.25566,-21.65433 21.14127,-36.45976 -1.73791,-6.25379 -5.83191,-11.53909 -9.78854,-16.68451 -3.95663,-5.14542 -7.9631,-10.526 -9.47238,-16.83888 -1.25772,-5.26073 -0.32682,-11.36869 3.16182,-15.31484 a 4.437,4.437 0 0 0 0.59439,-5.18643 z"
         transform="translate(-195.76514,-166.5)"
         fill="#2f2e41"
         id="path2071" />
      <path
         d="m 601.67412,187.72272 a 10.59017,10.59017 0 0 1 10.55849,10.5585 V 219.396 a 10.59016,10.59016 0 0 1 -10.55849,10.55849 H 580.55939 A 10.59017,10.59017 0 0 1 570.00089,219.396 v -21.11478 a 10.59017,10.59017 0 0 1 10.5585,-10.5585 h 21.11473 m 0,-4.22272 h -21.11473 a 14.82446,14.82446 0 0 0 -14.78122,14.78122 V 219.396 a 14.82446,14.82446 0 0 0 14.78122,14.78122 h 21.11473 A 14.82446,14.82446 0 0 0 616.45534,219.396 V 198.28122 A 14.82446,14.82446 0 0 0 601.67412,183.5 Z"
         transform="translate(-195.76514,-166.5)"
         fill="#3f3d56"
         id="path2073" />
      <path
         d="m 604.84144,198.28122 a 3.16053,3.16053 0 1 1 0.0136,0 q -0.007,1e-5 -0.0136,0 z"
         transform="translate(-195.76514,-166.5)"
         fill="#3f3d56"
         id="path2075" />
      <path
         d="m 591.11675,200.392 a 8.44657,8.44657 0 1 1 -8.44657,8.44657 8.44657,8.44657 0 0 1 8.44657,-8.44657 m 0,-4.22272 a 12.66929,12.66929 0 1 0 12.66925,12.6693 12.6693,12.6693 0 0 0 -12.66925,-12.66929 z"
         transform="translate(-195.76514,-166.5)"
         fill="#3f3d56"
         id="path2077" />
      <polygon
         points="151.235,550.919 156.4,503.554 174.012,507.704 163.168,553.731 "
         fill="#ffb8b8"
         id="polygon2079" />
      <path
         d="m 359.25123,732.51534 -38.47709,-9.06507 0.11464,-0.48668 a 15.38605,15.38605 0 0 1 18.50437,-11.4485 l 9.5e-4,2.3e-4 23.50039,5.53669 z"
         transform="translate(-195.76514,-166.5)"
         fill="#2f2e41"
         id="path2081" />
      <polygon
         points="197.41,554.131 191.578,506.843 209.672,506.844 209.67,554.131 "
         fill="#ffb8b8"
         id="polygon2083" />
      <path
         d="m 408.56139,732.51534 -39.53052,-0.001 v -0.5 a 15.38605,15.38605 0 0 1 15.38647,-15.38623 h 10e-4 l 24.1438,10e-4 z"
         transform="translate(-195.76514,-166.5)"
         fill="#2f2e41"
         id="path2085" />
      <path
         d="m 471.64879,533.61586 a 10.74272,10.74272 0 0 0 -5.23466,-15.61877 l -35.8942,-91.02309 -19.97048,12.123 41.56244,85.6607 a 10.80091,10.80091 0 0 0 19.5369,8.85815 z"
         transform="translate(-195.76514,-166.5)"
         fill="#ffb8b8"
         id="path2087" />
      <path
         d="m 438.14829,442.02715 -22.81487,8.44533 a 4.81688,4.81688 0 0 1 -6.38562,-3.5249 l -4.99553,-23.73408 a 13.37737,13.37737 0 0 1 25.11789,-9.21423 l 11.62955,21.19473 a 4.81687,4.81687 0 0 1 -2.55142,6.83311 z"
         transform="translate(-195.76514,-166.5)"
         fill="#6c63ff"
         id="path2089" />
      <path
         d="m 404.62053,703.65545 q -0.0897,0 -0.18017,-0.003 l -17.37744,-0.69531 a 4.47411,4.47411 0 0 1 -4.31958,-4.5586 l 1.33325,-96 a 1.5,1.5 0 0 0 -2.9917,-0.17773 l -10.08081,96.10547 a 4.51379,4.51379 0 0 1 -3.7356,3.96972 l -0.0603,0.01 -16.31372,-1.28223 A 4.49954,4.49954 0 0 1 345.717,696.549 l 0.97534,-162.77929 80.051,5.0664 -17.64991,160.81055 a 4.51488,4.51488 0 0 1 -4.4729,4.00879 z"
         transform="translate(-195.76514,-166.5)"
         fill="#2f2e41"
         id="path2091" />
      <circle
         cx="194.22321"
         cy="200.60902"
         r="24.561029"
         fill="#ffb8b8"
         id="circle2093" />
      <path
         d="m 422.76311,546.0031 q -0.16918,0 -0.33984,-0.0117 l -73.98365,-5.41309 a 4.49887,4.49887 0 0 1 -4.17089,-4.583 l 1.95068,-92.90429 a 41.90912,41.90912 0 1 1 83.6394,2.78613 c -1.2937,14.31836 -2.32275,76.87012 -2.60742,95.70019 a 4.495,4.495 0 0 1 -4.48828,4.42578 z"
         transform="translate(-195.76514,-166.5)"
         fill="#6c63ff"
         id="path2095" />
      <path
         d="m 290.9178,394.69168 a 10.52739,10.52739 0 0 1 0.2393,1.64013 l 42.95745,24.782 10.44141,-6.01094 11.13116,14.57228 -17.45034,12.43754 a 8,8 0 0 1 -9.59819,-0.23384 L 284.34207,406.933 a 10.4971,10.4971 0 1 1 6.57573,-12.24133 z"
         transform="translate(-195.76514,-166.5)"
         fill="#ffb8b8"
         id="path2097" />
      <path
         d="m 334.70478,418.63666 a 4.49518,4.49518 0 0 1 2.21126,-3.025 l 19.713,-11.02278 a 12.49741,12.49741 0 0 1 15.3266,19.74412 l -15.71732,16.32122 a 4.5,4.5 0 0 1 -6.80392,-0.37268 l -13.88374,-17.994 a 4.495,4.495 0 0 1 -0.84588,-3.65088 z"
         transform="translate(-195.76514,-166.5)"
         fill="#6c63ff"
         id="path2099" />
      <path
         d="m 402.68084,386.55389 a 22.37115,22.37115 0 0 1 -18.84815,-10.584 c -0.21631,-0.33887 -1.39844,-2.07519 -2.76733,-4.085 -3.84668,-5.64844 -4.74854,-6.99219 -4.825,-7.18945 -1.041,-2.68555 -4.345,-3.72266 -6.93335,-4.12012 -0.48291,-0.0742 -0.97266,-0.13965 -1.46412,-0.20605 -3.6455,-0.48829 -7.415,-0.99317 -9.48168,-5 -1.51612,-2.94043 -3.99537,-14.91407 -2.09131,-17.83985 2.387,-3.66992 6.9707,-2.47851 11.40356,-1.32519 2.83643,0.73632 5.7688,1.499 8.10571,1.01269 10.12915,-2.10742 21.60987,-4.49609 31.74878,1.67871 8.06958,4.91309 12.92334,14.19239 12.667,24.2168 -0.27515,10.76465 -4.97,19.26172 -12.55884,22.73047 l -1.57984,0.46 -0.88867,0.10937 a 21.99056,21.99056 0 0 1 -2.48676,0.14162 z"
         transform="translate(-195.76514,-166.5)"
         fill="#2f2e41"
         id="path2101" />
      <path
         d="m 963.70557,348.29873 a 27.54394,27.54394 0 0 0 -11.05351,52.77163 24.39144,24.39144 0 0 1 0.47952,-6.31981 c 0.5287,-2.23775 3.54106,-15.01262 3.54106,-15.01262 a 10.51457,10.51457 0 0 1 -0.88527,-4.35255 c 0,-4.082 2.36071,-7.1313 5.31159,-7.1313 2.50825,0 3.7132,1.88119 3.7132,4.13124 0,2.52054 -1.6107,6.28292 -2.43448,9.7748 a 4.25805,4.25805 0 0 0 4.35255,5.29929 c 5.21323,0 8.7297,-6.701 8.7297,-14.64376 0,-6.037 -4.06976,-10.5494 -11.45926,-10.5494 -8.34854,0 -13.56177,6.23374 -13.56177,13.1929 a 7.939,7.939 0 0 0 1.81971,5.39766 1.34617,1.34617 0 0 1 0.39345,1.53692 c -0.13525,0.50411 -0.43034,1.72135 -0.56559,2.21316 a 0.94626,0.94626 0 0 1 -1.37708,0.68854 c -3.84844,-1.5738 -5.64356,-5.77881 -5.64356,-10.52482 0,-7.81984 6.6026,-17.20119 19.68485,-17.20119 10.51252,0 17.43481,7.61082 17.43481,15.77493 0,10.80762 -6.01243,18.87336 -14.86508,18.87336 -2.97547,0 -5.76651,-1.61069 -6.72555,-3.4304 0,0 -1.5984,6.3444 -1.94267,7.57393 a 22.89215,22.89215 0 0 1 -2.76645,5.90177 27.54626,27.54626 0 1 0 7.81983,-53.96428 z"
         transform="translate(-195.76514,-166.5)"
         fill="#3f3d56"
         id="path2103" />
      <path
         d="m 808.61161,257.96668 -35.42445,-10.89856 a 3.62243,3.62243 0 0 0 -4.64388,2.18985 l -10.92275,35.50308 a 3.90737,3.90737 0 0 0 2.50783,4.75312 l 35.414,10.89535 a 3.70923,3.70923 0 0 0 4.5242,-2.58967 l 10.92275,-35.50308 a 3.40454,3.40454 0 0 0 -2.3777,-4.35009 z m -36.77914,27.41441 -6.08077,-1.87079 5.8167,-18.90649 6.08078,1.87079 z m 3.871,-22.65176 -0.0436,-0.0134 a 3.45895,3.45895 0 1 1 0.0436,0.0134 z m 18.3525,29.489 -6.08078,-1.87079 3.18046,-10.3377 c 0.762,-2.47665 0.39764,-4.44106 -1.80235,-5.1179 a 3.47858,3.47858 0 0 0 -3.80863,1.28522 4.2856,4.2856 0 0 0 -0.66972,1.42849 l -3.31309,10.76878 -6.08077,-1.87079 5.8167,-18.90649 6.08078,1.87079 -0.80948,2.63109 a 6.44223,6.44223 0 0 1 6.42948,-1.3864 c 3.99163,1.228 6.20171,4.78812 4.45655,10.46054 z"
         transform="translate(-195.76514,-166.5)"
         fill="#3f3d56"
         id="path2105" />
      <path
         d="m 265.69106,407.66486 a 27.4562,27.4562 0 1 0 -31.74623,27.124 v -19.185 h -6.97314 v -7.939 h 6.97314 v -6.05017 c 0,-6.88 4.10005,-10.6834 10.37084,-10.6834 a 42.19252,42.19252 0 0 1 6.147,0.53686 v 6.75742 h -3.4639 c -3.40874,0 -4.47512,2.11559 -4.47512,4.29 v 5.15048 h 7.6142 l -1.21592,7.939 h -6.39828 v 19.18625 a 27.46357,27.46357 0 0 0 23.1674,-27.12648 z"
         transform="translate(-195.76514,-166.5)"
         fill="#3f3d56"
         fill-rule="evenodd"
         id="path2107" />
      <path
         d="m 1003.7651,732.5 a 1.00308,1.00308 0 0 1 -1,1 H 196.76514 a 1,1 0 1 1 0,-2 h 805.99996 a 1.00308,1.00308 0 0 1 1,1 z"
         transform="translate(-195.76514,-166.5)"
         fill="#3f3d56"
         id="path2109" />
    </g>
    <g
       style="clip-rule:evenodd;fill-rule:evenodd;stroke-linejoin:round;stroke-miterlimit:2"
       id="g2177"
       transform="matrix(0.0232544,0,0,0.0232544,101.15586,122.63904)">
      <g
         id="g2164">
        <path
           d="M 512,256 C 512,114.615 397.385,0 256,0 114.615,0 0,114.615 0,256 0,383.777 93.616,489.685 216,508.89 V 330 h -65 v -74 h 65 v -56.4 c 0,-64.16 38.219,-99.6 96.695,-99.6 28.009,0 57.305,5 57.305,5 v 63 H 337.719 C 305.918,168 296,187.733 296,207.978 V 256 h 71 l -11.35,74 H 296 V 508.89 C 418.385,489.685 512,383.777 512,256 Z"
           style="fill:#1877f2;fill-rule:nonzero"
           id="path2160" />
        <path
           d="M 355.65,330 367,256 H 296 V 207.978 C 296,187.733 305.917,168 337.719,168 H 370 v -63 c 0,0 -29.297,-5 -57.305,-5 C 254.219,100 216,135.44 216,199.6 V 256 h -65 v 74 h 65 v 178.89 c 13.033,2.045 26.392,3.11 40,3.11 13.608,0 26.966,-1.065 40,-3.11 V 330 Z"
           style="fill:#ffffff;fill-rule:nonzero"
           id="path2162" />
      </g>
    </g>
    <text
       xml:space="preserve"
       style="font-size:5.43594px;line-height:7.77593px;font-family:'PT Sans';-inkscape-font-specification:'PT Sans, Normal';stroke-width:0.311037"
       x="113.58677"
       y="129.98376"
       id="text2181"><tspan
         sodipodi:role="line"
         id="tspan2179"
         x="113.58677"
         y="129.98376"
         style="stroke-width:0.311037">https://www.facebook.com/ramankarki0/</tspan></text>
    <text
       xml:space="preserve"
       style="font-size:5.43594px;line-height:7.77593px;font-family:'PT Sans';-inkscape-font-specification:'PT Sans, Normal';stroke-width:0.311037"
       x="244.44194"
       y="129.95116"
       id="text2185"><tspan
         sodipodi:role="line"
         id="tspan2183"
         x="244.44194"
         y="129.95116"
         style="stroke-width:0.311037">https://www.instagram.com/ramankarki9/</tspan></text>
    <g
       data-name="3-instagram"
       id="_3-instagram"
       transform="matrix(0.18603516,0,0,0.18603516,231.50993,122.63904)">
      <rect
         class="cls-1"
         height="64"
         rx="11.2"
         ry="11.2"
         transform="rotate(180,32,32)"
         width="64"
         id="rect2206"
         x="0"
         y="0"
         style="fill:url(#radial-gradient)" />
      <path
         class="cls-2"
         d="M 44,56 H 20 A 12,12 0 0 1 8,44 V 20 A 12,12 0 0 1 20,8 H 44 A 12,12 0 0 1 56,20 V 44 A 12,12 0 0 1 44,56 Z M 20,12.8 A 7.21,7.21 0 0 0 12.8,20 V 44 A 7.21,7.21 0 0 0 20,51.2 H 44 A 7.21,7.21 0 0 0 51.2,44 V 20 A 7.21,7.21 0 0 0 44,12.8 Z"
         id="path2208" />
      <path
         class="cls-2"
         d="M 32,45.6 A 13.6,13.6 0 1 1 45.6,32 13.61,13.61 0 0 1 32,45.6 Z M 32,23.2 A 8.8,8.8 0 1 0 40.8,32 8.81,8.81 0 0 0 32,23.2 Z"
         id="path2210" />
      <circle
         class="cls-2"
         cx="45.599998"
         cy="19.200001"
         r="2.4000001"
         id="circle2212" />
    </g>
  </g>
</svg>
