<?xml version="1.0" encoding="UTF-8" standalone="no"?>
<svg
   xmlns:dc="http://purl.org/dc/elements/1.1/"
   xmlns:cc="http://creativecommons.org/ns#"
   xmlns:rdf="http://www.w3.org/1999/02/22-rdf-syntax-ns#"
   xmlns:svg="http://www.w3.org/2000/svg"
   xmlns="http://www.w3.org/2000/svg"
   xmlns:sodipodi="http://sodipodi.sourceforge.net/DTD/sodipodi-0.dtd"
   xmlns:inkscape="http://www.inkscape.org/namespaces/inkscape"
   enable-background="new 0 0 24 24"
   height="24"
   id="Layer_1"
   version="1.1"
   viewBox="0 0 44 24"
   width="44"
   xml:space="preserve"
   sodipodi:docname="eye-icon.svg"
   inkscape:version="1.0.1 (3bc2e813f5, 2020-09-07)"><metadata
     id="metadata13"><rdf:RDF><cc:Work
         rdf:about=""><dc:format>image/svg+xml</dc:format><dc:type
           rdf:resource="http://purl.org/dc/dcmitype/StillImage" /><dc:title></dc:title></cc:Work></rdf:RDF></metadata><defs
     id="defs11" /><sodipodi:namedview
     pagecolor="#ffffff"
     bordercolor="#666666"
     borderopacity="1"
     objecttolerance="10"
     gridtolerance="10"
     guidetolerance="10"
     inkscape:pageopacity="0"
     inkscape:pageshadow="2"
     inkscape:window-width="1366"
     inkscape:window-height="715"
     id="namedview9"
     showgrid="false"
     inkscape:zoom="18.208"
     inkscape:cx="23.903762"
     inkscape:cy="11.61673"
     inkscape:window-x="-8"
     inkscape:window-y="22"
     inkscape:window-maximized="1"
     inkscape:current-layer="Layer_1" /><g
     id="g6"
     transform="translate(10.0005)"><g
       id="g4"><path
         clip-rule="evenodd"
         d="m 12,4 c -7.937,0 -12.012,8 -12.012,8 0,0 3.075,8 12.012,8 8.093,0 12.011,-7.969 12.011,-7.969 C 24.011,12.031 20.062,4 12,4 Z m 0.018,13 c -2.902,0 -5,-2.188 -5,-5 0,-2.813 2.098,-5 5,-5 2.902,0 5,2.187 5,5 0,2.812 -2.098,5 -5,5 z m 0,-8 c -1.658,0.003 -3,1.393 -3,3 0,1.606 1.342,3 3,3 1.658,0 3,-1.395 3,-3 0,-1.608 -1.342,-3.003 -3,-3 z"
         fill-rule="evenodd"
         id="path2" /></g></g></svg>
